<svg width="31" height="38" viewBox="0 0 31 38" fill="none" xmlns="http://www.w3.org/2000/svg">
<ellipse cx="14.7871" cy="18.6523" rx="13.2234" ry="12.5622" fill="url(#paint0_radial_227_180)"/>
<path d="M20.3957 26.4743L21.4097 27.0809L21.1392 25.9307L19.823 20.3352L24.1727 16.5782L25.0696 15.8035L23.8888 15.7016L18.1397 15.2058L15.9086 9.94582L15.4476 8.85898L14.9878 9.94632L12.7565 15.2226L7.00774 15.7185L5.82347 15.8206L6.72468 16.5957L11.0741 20.3365L9.77403 25.932L9.50709 27.0809L10.5184 26.4739L15.4487 23.5146L20.3957 26.4743ZM0.741394 17.6303V7.85791L15.4483 1.34734L30.1552 7.8579V17.6303C30.1552 26.7172 23.8652 35.1993 15.4483 37.311C7.03139 35.1993 0.741394 26.7172 0.741394 17.6303Z" fill="#9C6700" stroke="#603900"/>
<defs>
<radialGradient id="paint0_radial_227_180" cx="0" cy="0" r="1" gradientUnits="userSpaceOnUse" gradientTransform="translate(14.7871 18.6523) rotate(90) scale(12.5622 13.2234)">
<stop stop-color="white"/>
<stop offset="0.25" stop-color="#FFFB9B"/>
<stop offset="0.640625" stop-color="#FFF625"/>
<stop offset="1" stop-color="#FFF500"/>
</radialGradient>
</defs>
</svg>
