<svg width="64" height="64" viewBox="0 0 64 64" fill="none" xmlns="http://www.w3.org/2000/svg">
<circle cx="32" cy="32" r="32" fill="#DDDDDD"/>
<path d="M15 29.875V44.875H15.0956C15.555 48.0475 18.2644 50.5 21.5625 50.5C23.7638 50.5 25.4513 49.7181 26.5725 48.2987C27.2698 48.9989 28.0989 49.5539 29.0118 49.9318C29.9248 50.3098 30.9036 50.5031 31.8917 50.5007C32.8798 50.4982 33.8577 50.3001 34.7688 49.9176C35.6799 49.5352 36.5062 48.976 37.2 48.2725C38.3269 49.7012 40.02 50.5 42.1875 50.5C45.8062 50.5 48.75 47.5562 48.75 43.9375V29.875C48.75 20.5712 41.1806 13 31.875 13C22.5694 13 15 20.5712 15 29.875ZM26.25 31.75C24.1819 31.75 22.5 30.0681 22.5 28C22.5 25.9319 24.1819 24.25 26.25 24.25C28.3181 24.25 30 25.9319 30 28C30 30.0681 28.3181 31.75 26.25 31.75ZM37.5 24.25C39.5681 24.25 41.25 25.9319 41.25 28C41.25 30.0681 39.5681 31.75 37.5 31.75C35.4319 31.75 33.75 30.0681 33.75 28C33.75 25.9319 35.4319 24.25 37.5 24.25Z" fill="#2F2F2F"/>
<path d="M44 28C44 32.4183 38.4036 36 31.5 36C24.5964 36 19 32.4183 19 28C19 23.5817 24.5964 20 31.5 20C38.4036 20 44 23.5817 44 28Z" fill="#2F2F2F"/>
<circle cx="27" cy="26" r="2" fill="#D9D9D9"/>
<path d="M39 26C39 27.1046 38.1046 28 37 28C35.8954 28 35 27.1046 35 26C35 24.8954 35.8954 24 37 24C38.1046 24 39 24.8954 39 26Z" fill="#D9D9D9"/>
</svg>
