<svg width="107" height="107" viewBox="0 0 107 107" fill="none" xmlns="http://www.w3.org/2000/svg">
<path d="M14.2666 47.2583V82.925H14.494C15.5863 90.4685 22.0286 96.3 29.8708 96.3C35.1049 96.3 39.1174 94.4408 41.7834 91.0659C43.4414 92.7306 45.4128 94.0504 47.5836 94.949C49.7545 95.8476 52.0819 96.3073 54.4314 96.3015C56.7809 96.2957 59.1059 95.8245 61.2723 94.9152C63.4387 94.0058 65.4035 92.6763 67.0533 91.0035C69.7327 94.4007 73.7586 96.3 78.9124 96.3C87.517 96.3 94.5166 89.3004 94.5166 80.6958V47.2583C94.5166 25.136 76.5183 7.1333 54.3916 7.1333C32.2649 7.1333 14.2666 25.136 14.2666 47.2583Z" fill="#F0ECF3"/>
<path d="M65 36L58 35M63 36V45M50 35L43 36M45 36V45M54 47C59 47 61 51 61 51H47C47 51 49 47 54 47Z" stroke="#2F2F2F" stroke-width="4" stroke-linecap="round" stroke-linejoin="round"/>
</svg>
