<svg width="31" height="38" viewBox="0 0 31 38" fill="none" xmlns="http://www.w3.org/2000/svg">
<ellipse cx="14.5457" cy="18.6523" rx="13.2234" ry="12.5622" fill="white"/>
<path d="M20.1543 26.4743L21.1683 27.0809L20.8978 25.9307L19.5816 20.3352L23.9313 16.5782L24.8282 15.8035L23.6475 15.7016L17.8983 15.2058L15.6672 9.94582L15.2062 8.85898L14.7464 9.94632L12.5151 15.2226L6.76635 15.7185L5.58207 15.8206L6.48328 16.5957L10.8327 20.3365L9.53263 25.932L9.2657 27.0809L10.277 26.4739L15.2073 23.5146L20.1543 26.4743ZM0.5 17.6303V7.85791L15.2069 1.34734L29.9138 7.8579V17.6303C29.9138 26.7172 23.6238 35.1993 15.2069 37.311C6.79 35.1993 0.5 26.7172 0.5 17.6303Z" fill="#9C6700" stroke="#603900"/>
</svg>
