<svg width="31" height="38" viewBox="0 0 31 38" fill="none" xmlns="http://www.w3.org/2000/svg">
<ellipse cx="15.0285" cy="18.6523" rx="13.2234" ry="12.5622" fill="url(#paint0_radial_227_174)"/>
<path d="M20.6371 26.4743L21.6511 27.0809L21.3805 25.9307L20.0644 20.3352L24.4141 16.5782L25.311 15.8035L24.1302 15.7016L18.3811 15.2058L16.15 9.94582L15.689 8.85898L15.2292 9.94632L12.9979 15.2226L7.24914 15.7185L6.06486 15.8206L6.96607 16.5957L11.3155 20.3365L10.0154 25.932L9.74849 27.0809L10.7598 26.4739L15.6901 23.5146L20.6371 26.4743ZM0.982788 17.6303V7.85791L15.6897 1.34734L30.3966 7.8579V17.6303C30.3966 26.7172 24.1066 35.1993 15.6897 37.311C7.27278 35.1993 0.982788 26.7172 0.982788 17.6303Z" fill="#888888" stroke="#474747"/>
<defs>
<radialGradient id="paint0_radial_227_174" cx="0" cy="0" r="1" gradientUnits="userSpaceOnUse" gradientTransform="translate(15.0285 18.6523) rotate(90) scale(12.5622 13.2234)">
<stop stop-color="white"/>
<stop offset="0.25" stop-color="#FFFB9B"/>
<stop offset="0.640625" stop-color="#FFF625"/>
<stop offset="1" stop-color="#FFF500"/>
</radialGradient>
</defs>
</svg>
