<svg width="92" height="92" viewBox="0 0 92 92" fill="none" xmlns="http://www.w3.org/2000/svg">
<rect x="1.5" y="1.5" width="89" height="89" rx="6.5" stroke="#7875FF" stroke-width="3"/>
<path fill-rule="evenodd" clip-rule="evenodd" d="M65.7344 63.3901V48.5556C65.7344 37.1857 56.5178 27.9691 45.1479 27.9691C33.7781 27.9691 24.5615 37.1857 24.5615 48.5556V63.3901C24.5616 63.9962 24.7167 64.5922 25.012 65.1215C25.3073 65.6508 25.733 66.0958 26.2486 66.4143C26.7643 66.7328 27.3528 66.9141 27.9583 66.9412C28.5638 66.9682 29.1661 66.84 29.7081 66.5687C30.6464 66.0996 31.6919 65.8868 32.7389 65.9518C33.7859 66.0169 34.797 66.3575 35.67 66.9392C36.6479 67.5911 37.7968 67.9389 38.972 67.9389C40.1472 67.9389 41.2962 67.5911 42.2741 66.9392L43.0008 66.4575C43.6367 66.0338 44.3838 65.8077 45.1479 65.8077C45.9121 65.8077 46.6592 66.0338 47.2951 66.4575L48.0218 66.9413C48.9997 67.5931 50.1486 67.9409 51.3239 67.9409C52.4991 67.9409 53.648 67.5931 54.6259 66.9413C55.4991 66.3592 56.5106 66.0184 57.558 65.9533C58.6054 65.8882 59.6513 66.1012 60.5898 66.5707C61.1319 66.8416 61.7342 66.9695 62.3396 66.9421C62.9449 66.9148 63.5332 66.7331 64.0487 66.4145C64.5641 66.0958 64.9895 65.6507 65.2846 65.1214C65.5796 64.5921 65.7344 63.9961 65.7344 63.3901ZM53.3825 45.4676C53.3825 47.1722 52.4602 48.5556 51.3239 48.5556C50.1875 48.5556 49.2652 47.1722 49.2652 45.4676C49.2652 43.763 50.1875 42.3796 51.3239 42.3796C52.4602 42.3796 53.3825 43.763 53.3825 45.4676ZM38.972 48.5556C40.1084 48.5556 41.0307 47.1722 41.0307 45.4676C41.0307 43.763 40.1084 42.3796 38.972 42.3796C37.8356 42.3796 36.9134 43.763 36.9134 45.4676C36.9134 47.1722 37.8356 48.5556 38.972 48.5556Z" fill="#7875FF"/>
</svg>
