<svg width="92" height="92" viewBox="0 0 92 92" fill="none" xmlns="http://www.w3.org/2000/svg">
<rect x="1.5" y="1.5" width="89" height="89" rx="6.5" stroke="#FF916F" stroke-width="3"/>
<path fill-rule="evenodd" clip-rule="evenodd" d="M53.9506 27.7945C56.1151 29.0439 57.9887 30.7399 59.4469 32.7696C60.9051 34.7992 61.9145 37.1161 62.4078 39.5661C62.9012 42.0161 62.8673 44.5431 62.3083 46.979C61.7494 49.4148 60.6782 51.7038 59.1661 53.6936C60.9758 54.1669 62.5516 55.2823 63.5996 56.8318C64.6476 58.3812 65.0962 60.259 64.8619 62.1148C64.6276 63.9707 63.7262 65.6779 62.3259 66.9182C60.9257 68.1586 59.1221 68.8472 57.2515 68.8558C56.1482 68.8559 55.0577 68.6188 54.054 68.1608C53.0502 67.7028 52.1566 67.0344 51.4336 66.201C50.7105 65.3676 50.175 64.3886 49.8632 63.3302C49.5514 62.2719 49.4707 61.1589 49.6264 60.0666C46.6113 60.8622 43.4389 60.8417 40.4344 60.0072L36.8562 66.2041C36.5644 66.7095 36.0837 67.0783 35.52 67.2294C34.9562 67.3804 34.3556 67.3013 33.8502 67.0095L30.0387 64.8089C29.5333 64.5171 29.1645 64.0364 29.0134 63.4727C28.8624 62.909 28.9415 62.3083 29.2333 61.8029L32.8115 55.6059C29.7493 52.6047 27.8876 48.5891 27.5759 44.3127C27.2642 40.0363 28.5239 35.7932 31.1185 32.3796C33.7131 28.966 37.4643 26.6167 41.6681 25.7725C45.8719 24.9283 50.2393 25.6473 53.9506 27.7945ZM57.2515 57.855C56.3761 57.855 55.5365 58.2027 54.9174 58.8218C54.2984 59.4408 53.9506 60.2804 53.9506 61.1559C53.9506 62.0313 54.2984 62.8709 54.9174 63.49C55.5365 64.109 56.3761 64.4568 57.2515 64.4568C58.127 64.4568 58.9666 64.109 59.5856 63.49C60.2047 62.8709 60.5524 62.0313 60.5524 61.1559C60.5524 60.2804 60.2047 59.4408 59.5856 58.8218C58.9666 58.2027 58.127 57.855 57.2515 57.855Z" fill="#FF5D29"/>
</svg>
