<svg width="92" height="92" viewBox="0 0 92 92" fill="none" xmlns="http://www.w3.org/2000/svg">
<path d="M8 1.5H84C87.5899 1.5 90.5 4.41015 90.5 8V84C90.5 87.5899 87.5899 90.5 84 90.5H8C4.41015 90.5 1.5 87.5899 1.5 84V8C1.5 4.41015 4.41015 1.5 8 1.5Z" stroke="#FFBB56" stroke-width="3"/>
<path d="M44.1207 20.1955C45.1602 18.3271 45.68 17.397 46.4569 17.397C47.2338 17.397 47.7535 18.3271 48.7931 20.1955L49.0611 20.677C49.3566 21.2077 49.5043 21.4703 49.7341 21.6454C49.9666 21.8204 50.2538 21.8861 50.8283 22.0147L51.3481 22.135C53.3669 22.5919 54.3763 22.8189 54.6171 23.5903C54.8578 24.3645 54.1684 25.1688 52.7924 26.7773L52.4368 27.1931C52.0456 27.6499 51.8487 27.877 51.7611 28.1615C51.6736 28.446 51.7037 28.7496 51.7611 29.3596L51.8159 29.915C52.0238 32.0624 52.1277 33.1374 51.5013 33.6134C50.8721 34.0922 49.9256 33.6545 48.0353 32.7846L47.5484 32.5602C47.0095 32.314 46.7414 32.1882 46.4569 32.1882C46.1724 32.1882 45.9043 32.314 45.3654 32.5602L44.8785 32.7846C42.9882 33.6545 42.0417 34.0922 41.4125 33.6134C40.7833 33.1374 40.89 32.0624 41.0979 29.915L41.1526 29.3596C41.2101 28.7496 41.2402 28.446 41.1526 28.1615C41.0651 27.8797 40.8681 27.6499 40.477 27.1931L40.1213 26.7773C38.7453 25.1688 38.056 24.3645 38.2967 23.5903C38.5374 22.8189 39.5469 22.5919 41.5657 22.135L42.0855 22.0147C42.6599 21.8861 42.9472 21.8232 43.1797 21.6454C43.4095 21.4703 43.5572 21.2077 43.8526 20.677L44.1207 20.1955ZM49.1924 39.2815H43.7213C39.8532 39.2815 37.9192 39.2815 36.7183 40.4852C35.5146 41.6833 35.5146 43.6174 35.5146 47.4882V72.1082H57.3991V47.4882C57.3991 43.6201 57.3991 41.6861 56.1955 40.4852C54.9973 39.2815 53.0633 39.2815 49.1924 39.2815Z" fill="#FF9900"/>
<path opacity="0.5" d="M34.3108 65.1052C33.1126 63.9016 31.1786 63.9016 27.3078 63.9016C23.4397 63.9016 21.5056 63.9016 20.3047 65.1052C19.1011 66.3034 19.1011 68.2374 19.1011 72.1082H35.5144C35.5144 68.2402 35.5144 66.3061 34.3108 65.1052ZM57.3989 63.9016V72.1082H73.8123V63.9016C73.8123 60.0335 73.8123 58.0994 72.6086 56.8985C71.4104 55.6949 69.4764 55.6949 65.6056 55.6949C61.7375 55.6949 59.8035 55.6949 58.6026 56.8985C57.3989 58.0967 57.3989 60.0307 57.3989 63.9016Z" fill="#FF9900"/>
</svg>
