<svg width="92" height="92" viewBox="0 0 92 92" fill="none" xmlns="http://www.w3.org/2000/svg">
<rect x="1.5" y="1.5" width="89" height="89" rx="6.5" stroke="#FF9900" stroke-width="3"/>
<path d="M37.2 47.5C41.4556 47.5 44.9 44.0752 44.9 39.8438C44.9 35.6123 41.4556 32.1875 37.2 32.1875C32.9444 32.1875 29.5 35.6123 29.5 39.8438C29.5 44.0752 32.9444 47.5 37.2 47.5ZM42.48 49.6875H41.9094C40.4794 50.3711 38.8913 50.7812 37.2 50.7812C35.5088 50.7812 33.9275 50.3711 32.4906 49.6875H31.92C27.5475 49.6875 24 53.2148 24 57.5625V59.5312C24 61.3428 25.4781 62.8125 27.3 62.8125H47.1C48.9219 62.8125 50.4 61.3428 50.4 59.5312V57.5625C50.4 53.2148 46.8525 49.6875 42.48 49.6875ZM57 47.5C60.6438 47.5 63.6 44.5605 63.6 40.9375C63.6 37.3145 60.6438 34.375 57 34.375C53.3563 34.375 50.4 37.3145 50.4 40.9375C50.4 44.5605 53.3563 47.5 57 47.5ZM60.3 49.6875H60.0388C59.0831 50.0156 58.0725 50.2344 57 50.2344C55.9275 50.2344 54.9169 50.0156 53.9612 49.6875H53.7C52.2975 49.6875 51.005 50.0908 49.8706 50.7402C51.5481 52.5381 52.6 54.9238 52.6 57.5625V60.1875C52.6 60.3379 52.5656 60.4814 52.5588 60.625H64.7C66.5219 60.625 68 59.1553 68 57.3438C68 53.1123 64.5556 49.6875 60.3 49.6875Z" fill="#FF9900"/>
</svg>
