<svg width="73" height="73" viewBox="0 0 73 73" fill="none" xmlns="http://www.w3.org/2000/svg">
<path d="M15.2083 63.875C13.5354 63.875 12.1028 63.2788 10.9105 62.0865C9.71813 60.8942 9.12298 59.4626 9.12501 57.7917V15.2083C9.12501 13.5354 9.72117 12.1028 10.9135 10.9105C12.1058 9.71813 13.5374 9.12298 15.2083 9.12501H57.7917C59.4646 9.12501 60.8972 9.72117 62.0895 10.9135C63.2819 12.1058 63.877 13.5374 63.875 15.2083V57.7917C63.875 59.4646 63.2788 60.8972 62.0865 62.0895C60.8942 63.2819 59.4626 63.877 57.7917 63.875H15.2083ZM30.4167 51.7083H42.5833C44.2563 51.7083 45.6889 51.1122 46.8812 49.9198C48.0735 48.7275 48.6687 47.2959 48.6667 45.625V36.5C48.6667 35.6382 48.3747 34.9153 47.7907 34.3313C47.2067 33.7473 46.4848 33.4563 45.625 33.4583H39.5417C38.6799 33.4583 37.957 33.7503 37.373 34.3343C36.789 34.9183 36.498 35.6402 36.5 36.5C36.5 37.3618 36.792 38.0847 37.376 38.6687C37.96 39.2527 38.6819 39.5437 39.5417 39.5417H42.5833V45.625H30.4167V27.375H48.6667C48.6667 25.7021 48.0705 24.2695 46.8782 23.0771C45.6858 21.8848 44.2542 21.2896 42.5833 21.2917H30.4167C28.7438 21.2917 27.3111 21.8878 26.1188 23.0802C24.9265 24.2725 24.3313 25.7041 24.3333 27.375V45.625C24.3333 47.2979 24.9295 48.7305 26.1218 49.9229C27.3142 51.1152 28.7458 51.7104 30.4167 51.7083Z" fill="#939393"/>
<rect x="1.5" y="1.5" width="70" height="70" rx="6.5" stroke="#939393" stroke-width="3"/>
</svg>
