<svg width="92" height="92" viewBox="0 0 92 92" fill="none" xmlns="http://www.w3.org/2000/svg">
<rect x="1.5" y="1.5" width="89" height="89" rx="6.5" stroke="#FF9900" stroke-width="3"/>
<path d="M37.2 60.5C41.4556 60.5 44.9 57.0752 44.9 52.8438C44.9 48.6123 41.4556 45.1875 37.2 45.1875C32.9444 45.1875 29.5 48.6123 29.5 52.8438C29.5 57.0752 32.9444 60.5 37.2 60.5ZM42.48 62.6875H41.9094C40.4794 63.3711 38.8913 63.7812 37.2 63.7812C35.5088 63.7812 33.9275 63.3711 32.4906 62.6875H31.92C27.5475 62.6875 24 66.2148 24 70.5625V72.5312C24 74.3428 25.4781 75.8125 27.3 75.8125H47.1C48.9219 75.8125 50.4 74.3428 50.4 72.5312V70.5625C50.4 66.2148 46.8525 62.6875 42.48 62.6875ZM57 60.5C60.6438 60.5 63.6 57.5605 63.6 53.9375C63.6 50.3145 60.6438 47.375 57 47.375C53.3563 47.375 50.4 50.3145 50.4 53.9375C50.4 57.5605 53.3563 60.5 57 60.5ZM60.3 62.6875H60.0388C59.0831 63.0156 58.0725 63.2344 57 63.2344C55.9275 63.2344 54.9169 63.0156 53.9612 62.6875H53.7C52.2975 62.6875 51.005 63.0908 49.8706 63.7402C51.5481 65.5381 52.6 67.9238 52.6 70.5625V73.1875C52.6 73.3379 52.5656 73.4814 52.5588 73.625H64.7C66.5219 73.625 68 72.1553 68 70.3438C68 66.1123 64.5556 62.6875 60.3 62.6875Z" fill="#FF9900"/>
<path d="M46.5573 21.7578C47.1313 21.4023 47.5139 20.7574 47.5139 20.0312C47.5139 18.909 46.6127 18 45.5 18C44.3873 18 43.4861 18.909 43.4861 20.0312C43.4861 20.7625 43.8688 21.4023 44.4427 21.7578L41.5578 27.5773C41.0997 28.5016 39.9115 28.7656 39.1109 28.1207L34.625 24.5C34.8767 24.1598 35.0278 23.7383 35.0278 23.2812C35.0278 22.159 34.1266 21.25 33.0139 21.25C31.9012 21.25 31 22.159 31 23.2812C31 24.4035 31.9012 25.3125 33.0139 25.3125H33.0491L35.35 38.0789C35.6269 39.6227 36.9611 40.75 38.5219 40.75H52.4781C54.0339 40.75 55.3681 39.6277 55.65 38.0789L57.9509 25.3125H57.9861C59.0988 25.3125 60 24.4035 60 23.2812C60 22.159 59.0988 21.25 57.9861 21.25C56.8734 21.25 55.9722 22.159 55.9722 23.2812C55.9722 23.7383 56.1233 24.1598 56.375 24.5L51.8891 28.1207C51.0885 28.7656 49.9003 28.5016 49.4422 27.5773L46.5573 21.7578Z" fill="#FF9900"/>
</svg>
