<svg width="39" height="46" viewBox="0 0 39 46" fill="none" xmlns="http://www.w3.org/2000/svg">
<g filter="url(#filter0_d_227_180)">
<ellipse cx="18.7871" cy="18.6523" rx="13.2234" ry="12.5622" fill="url(#paint0_radial_227_180)"/>
<path d="M24.3957 26.4743L25.4097 27.0809L25.1392 25.9307L23.823 20.3352L28.1727 16.5782L29.0696 15.8035L27.8888 15.7016L22.1397 15.2058L19.9086 9.94582L19.4476 8.85898L18.9878 9.94632L16.7565 15.2226L11.0077 15.7185L9.82347 15.8206L10.7247 16.5957L15.0741 20.3365L13.774 25.932L13.5071 27.0809L14.5184 26.4739L19.4487 23.5146L24.3957 26.4743ZM4.74139 17.6303V7.85791L19.4483 1.34734L34.1552 7.8579V17.6303C34.1552 26.7172 27.8652 35.1993 19.4483 37.311C11.0314 35.1993 4.74139 26.7172 4.74139 17.6303Z" fill="#9C6700" stroke="#603900"/>
</g>
<defs>
<filter id="filter0_d_227_180" x="0.241394" y="0.800537" width="38.4138" height="45.0254" filterUnits="userSpaceOnUse" color-interpolation-filters="sRGB">
<feFlood flood-opacity="0" result="BackgroundImageFix"/>
<feColorMatrix in="SourceAlpha" type="matrix" values="0 0 0 0 0 0 0 0 0 0 0 0 0 0 0 0 0 0 127 0" result="hardAlpha"/>
<feOffset dy="4"/>
<feGaussianBlur stdDeviation="2"/>
<feComposite in2="hardAlpha" operator="out"/>
<feColorMatrix type="matrix" values="0 0 0 0 0 0 0 0 0 0 0 0 0 0 0 0 0 0 0.25 0"/>
<feBlend mode="normal" in2="BackgroundImageFix" result="effect1_dropShadow_227_180"/>
<feBlend mode="normal" in="SourceGraphic" in2="effect1_dropShadow_227_180" result="shape"/>
</filter>
<radialGradient id="paint0_radial_227_180" cx="0" cy="0" r="1" gradientUnits="userSpaceOnUse" gradientTransform="translate(18.7871 18.6523) rotate(90) scale(12.5622 13.2234)">
<stop stop-color="white"/>
<stop offset="0.25" stop-color="#FFFB9B"/>
<stop offset="0.640625" stop-color="#FFF625"/>
<stop offset="1" stop-color="#FFF500"/>
</radialGradient>
</defs>
</svg>
