<svg width="24" height="24" viewBox="0 0 24 24" fill="none" xmlns="http://www.w3.org/2000/svg">
<path d="M2.80585 5.20009L7.00485 8.00009L11.1909 2.14009C11.2833 2.01041 11.4053 1.90467 11.5469 1.83168C11.6884 1.75869 11.8453 1.72056 12.0046 1.72046C12.1638 1.72036 12.3208 1.7583 12.4624 1.83112C12.6041 1.90393 12.7263 2.00952 12.8189 2.13909L17.0049 8.00009L21.2049 5.20109C21.3638 5.09534 21.5497 5.0373 21.7406 5.03383C21.9315 5.03036 22.1194 5.08161 22.2821 5.18152C22.4448 5.28142 22.5755 5.42582 22.6587 5.59763C22.7419 5.76944 22.7743 5.9615 22.7519 6.15109L21.1099 20.1161C21.0812 20.3593 20.9643 20.5836 20.7812 20.7464C20.5982 20.9091 20.3618 20.9991 20.1169 20.9991H3.89385C3.64892 20.9991 3.41252 20.9091 3.22948 20.7464C3.04645 20.5836 2.92951 20.3593 2.90085 20.1161L1.25785 6.14909C1.2355 5.95942 1.26792 5.76731 1.35129 5.59549C1.43467 5.42366 1.5655 5.2793 1.72832 5.17948C1.89115 5.07966 2.07915 5.02856 2.2701 5.03221C2.46105 5.03586 2.64697 5.09412 2.80585 5.20009ZM12.0059 15.0001C12.5363 15.0001 13.045 14.7894 13.4201 14.4143C13.7951 14.0392 14.0059 13.5305 14.0059 13.0001C14.0059 12.4697 13.7951 11.961 13.4201 11.5859C13.045 11.2108 12.5363 11.0001 12.0059 11.0001C11.4754 11.0001 10.9667 11.2108 10.5916 11.5859C10.2166 11.961 10.0059 12.4697 10.0059 13.0001C10.0059 13.5305 10.2166 14.0392 10.5916 14.4143C10.9667 14.7894 11.4754 15.0001 12.0059 15.0001Z" fill="#FFC01D"/>
</svg>
