<svg width="41" height="41" viewBox="0 0 41 41" fill="none" xmlns="http://www.w3.org/2000/svg">
<g filter="url(#filter0_d_227_189)">
<circle cx="20.9483" cy="16.5419" r="11.1127" fill="url(#paint0_radial_227_189)"/>
<path d="M21.0242 32.0671C20.9955 32.0732 20.9701 32.0786 20.9483 32.0831C20.9264 32.0786 20.9011 32.0732 20.8723 32.0671C20.757 32.0425 20.5869 32.0054 20.37 31.9558C19.936 31.8566 19.3149 31.7075 18.569 31.5086C17.0759 31.1105 15.0899 30.5144 13.1081 29.7217C11.1207 28.9267 9.16616 27.9451 7.71698 26.7858C6.25966 25.6199 5.39655 24.3437 5.39655 22.9627C5.39655 22.2294 5.58209 21.2792 5.88054 20.1848C6.17716 19.0972 6.5737 17.9072 6.97606 16.7001L6.97878 16.6919C7.37812 15.4939 7.78303 14.2792 8.08766 13.1622C8.39115 12.0494 8.60689 10.9932 8.60689 10.1213C8.60689 8.36581 7.73693 6.65848 6.91774 5.4297C6.50273 4.80717 6.08844 4.28939 5.77779 3.92696C5.71042 3.84837 5.64782 3.77695 5.59101 3.71322L8.19822 1.10602C10.0647 2.06507 12.3346 2.59541 14.5276 2.59541C16.7576 2.59541 19.0796 2.03237 20.9483 1.0577C22.817 2.03237 25.139 2.59541 27.369 2.59541C29.562 2.59541 31.8318 2.06507 33.6983 1.10602L36.3055 3.71322C36.2487 3.77695 36.1861 3.84837 36.1188 3.92696C35.8081 4.28939 35.3938 4.80717 34.9788 5.4297C34.1596 6.65848 33.2897 8.36581 33.2897 10.1213C33.2897 10.9932 33.5054 12.0494 33.8089 13.1622C34.1135 14.2791 34.5184 15.4938 34.9177 16.6918L34.9205 16.7001C35.3228 17.9072 35.7194 19.0972 36.016 20.1848C36.3145 21.2792 36.5 22.2294 36.5 22.9627C36.5 24.3437 35.6369 25.6199 34.1796 26.7858C32.7304 27.9451 30.7759 28.9267 28.7884 29.7217C26.8067 30.5144 24.8207 31.1105 23.3275 31.5086C22.5817 31.7075 21.9605 31.8566 21.5266 31.9558C21.3096 32.0054 21.1396 32.0425 21.0242 32.0671ZM25.5856 24.113L26.6007 24.726L26.3309 23.5712L25.0836 18.2322L29.22 14.6738L30.1205 13.8991L28.937 13.7966L23.4898 13.3249L21.3602 8.32032L20.8978 7.23362L20.4393 8.32201L18.3252 13.3411L12.8793 13.8126L11.6958 13.9151L12.5963 14.6898L16.7325 18.2481L15.4854 23.5709L15.2141 24.7289L16.2313 24.1126L20.9005 21.2837L25.5856 24.113Z" fill="#5CE2FF" stroke="#0066FF"/>
</g>
<defs>
<filter id="filter0_d_227_189" x="0.896545" y="0.490234" width="40.1035" height="40.1035" filterUnits="userSpaceOnUse" color-interpolation-filters="sRGB">
<feFlood flood-opacity="0" result="BackgroundImageFix"/>
<feColorMatrix in="SourceAlpha" type="matrix" values="0 0 0 0 0 0 0 0 0 0 0 0 0 0 0 0 0 0 127 0" result="hardAlpha"/>
<feOffset dy="4"/>
<feGaussianBlur stdDeviation="2"/>
<feComposite in2="hardAlpha" operator="out"/>
<feColorMatrix type="matrix" values="0 0 0 0 0 0 0 0 0 0 0 0 0 0 0 0 0 0 0.25 0"/>
<feBlend mode="normal" in2="BackgroundImageFix" result="effect1_dropShadow_227_189"/>
<feBlend mode="normal" in="SourceGraphic" in2="effect1_dropShadow_227_189" result="shape"/>
</filter>
<radialGradient id="paint0_radial_227_189" cx="0" cy="0" r="1" gradientUnits="userSpaceOnUse" gradientTransform="translate(20.9483 16.5419) rotate(90) scale(11.1127)">
<stop stop-color="white"/>
<stop offset="0.25" stop-color="#FFFB9B"/>
<stop offset="0.640625" stop-color="#FFF625"/>
<stop offset="1" stop-color="#FFF500"/>
</radialGradient>
</defs>
</svg>
