<svg width="33" height="33" viewBox="0 0 33 33" fill="none" xmlns="http://www.w3.org/2000/svg">
<circle cx="16.9483" cy="16.5419" r="11.1127" fill="url(#paint0_radial_227_189)"/>
<path d="M17.0242 32.0671C16.9955 32.0732 16.9701 32.0786 16.9483 32.0831C16.9264 32.0786 16.9011 32.0732 16.8723 32.0671C16.757 32.0425 16.5869 32.0054 16.37 31.9558C15.936 31.8566 15.3149 31.7075 14.569 31.5086C13.0759 31.1105 11.0899 30.5144 9.1081 29.7217C7.12069 28.9267 5.16616 27.9451 3.71698 26.7858C2.25966 25.6199 1.39655 24.3437 1.39655 22.9627C1.39655 22.2294 1.58209 21.2792 1.88054 20.1848C2.17716 19.0972 2.5737 17.9072 2.97606 16.7001L2.97878 16.6919C3.37812 15.4939 3.78303 14.2792 4.08766 13.1622C4.39115 12.0494 4.60689 10.9932 4.60689 10.1213C4.60689 8.36581 3.73693 6.65848 2.91774 5.4297C2.50273 4.80717 2.08844 4.28939 1.77779 3.92696C1.71042 3.84837 1.64782 3.77695 1.59101 3.71322L4.19822 1.10602C6.06472 2.06507 8.33458 2.59541 10.5276 2.59541C12.7576 2.59541 15.0796 2.03237 16.9483 1.0577C18.817 2.03237 21.139 2.59541 23.369 2.59541C25.562 2.59541 27.8318 2.06507 29.6983 1.10602L32.3055 3.71322C32.2487 3.77695 32.1861 3.84837 32.1188 3.92696C31.8081 4.28939 31.3938 4.80717 30.9788 5.4297C30.1596 6.65848 29.2897 8.36581 29.2897 10.1213C29.2897 10.9932 29.5054 12.0494 29.8089 13.1622C30.1135 14.2791 30.5184 15.4938 30.9177 16.6918L30.9205 16.7001C31.3228 17.9072 31.7194 19.0972 32.016 20.1848C32.3145 21.2792 32.5 22.2294 32.5 22.9627C32.5 24.3437 31.6369 25.6199 30.1796 26.7858C28.7304 27.9451 26.7759 28.9267 24.7884 29.7217C22.8067 30.5144 20.8207 31.1105 19.3275 31.5086C18.5817 31.7075 17.9605 31.8566 17.5266 31.9558C17.3096 32.0054 17.1396 32.0425 17.0242 32.0671ZM21.5856 24.113L22.6007 24.726L22.3309 23.5712L21.0836 18.2322L25.22 14.6738L26.1205 13.8991L24.937 13.7966L19.4898 13.3249L17.3602 8.32032L16.8978 7.23362L16.4393 8.32201L14.3252 13.3411L8.87927 13.8126L7.69582 13.9151L8.59633 14.6898L12.7325 18.2481L11.4854 23.5709L11.2141 24.7289L12.2313 24.1126L16.9005 21.2837L21.5856 24.113Z" fill="#5CE2FF" stroke="#0066FF"/>
<defs>
<radialGradient id="paint0_radial_227_189" cx="0" cy="0" r="1" gradientUnits="userSpaceOnUse" gradientTransform="translate(16.9483 16.5419) rotate(90) scale(11.1127)">
<stop stop-color="white"/>
<stop offset="0.25" stop-color="#FFFB9B"/>
<stop offset="0.640625" stop-color="#FFF625"/>
<stop offset="1" stop-color="#FFF500"/>
</radialGradient>
</defs>
</svg>
