<svg width="25" height="27" viewBox="0 0 25 27" fill="none" xmlns="http://www.w3.org/2000/svg">
<path fill-rule="evenodd" clip-rule="evenodd" d="M0.266602 12.1333V22.8H0.334602C0.661268 25.056 2.58794 26.8 4.93327 26.8C6.4986 26.8 7.6986 26.244 8.49594 25.2346C8.99178 25.7325 9.58134 26.1272 10.2306 26.3959C10.8798 26.6647 11.5758 26.8022 12.2785 26.8004C12.9811 26.7987 13.6765 26.6578 14.3244 26.3858C14.9723 26.1139 15.5599 25.7163 16.0533 25.216C16.8546 26.232 18.0586 26.8 19.5999 26.8C22.1733 26.8 24.2666 24.7066 24.2666 22.1333V12.1333C24.2666 5.5173 18.8839 0.133301 12.2666 0.133301C5.64927 0.133301 0.266602 5.5173 0.266602 12.1333ZM10.2221 9.37779C10.2221 10.1633 9.58538 10.8 8.79991 10.8C8.01444 10.8 7.37769 10.1633 7.37769 9.37779C7.37769 8.59232 8.01444 7.95557 8.79991 7.95557C9.58538 7.95557 10.2221 8.59232 10.2221 9.37779ZM15.911 10.8C16.6965 10.8 17.3332 10.1633 17.3332 9.37779C17.3332 8.59232 16.6965 7.95557 15.911 7.95557C15.1255 7.95557 14.4888 8.59232 14.4888 9.37779C14.4888 10.1633 15.1255 10.8 15.911 10.8Z" fill="#F0ECF3" fill-opacity="0.56"/>
</svg>
