<svg width="24" height="24" viewBox="0 0 24 24" fill="none" xmlns="http://www.w3.org/2000/svg">
<path d="M11.9998 2.24695C9.62519 2.2469 7.32809 3.09183 5.51952 4.63055C3.71096 6.16928 2.50896 8.30136 2.12863 10.6453C1.74831 12.9892 2.21447 15.392 3.4437 17.4236C4.67293 19.4552 6.585 20.9832 8.83776 21.7339C9.33776 21.8219 9.52476 21.5219 9.52476 21.2589C9.52476 21.0219 9.51276 20.2339 9.51276 19.3969C6.99976 19.8589 6.34976 18.7839 6.14976 18.2219C5.9279 17.6747 5.57609 17.1897 5.12476 16.8089C4.77476 16.6219 4.27476 16.1589 5.11176 16.1469C5.43164 16.1816 5.73845 16.2928 6.00619 16.4712C6.27393 16.6497 6.49469 16.89 6.64976 17.1719C6.78649 17.4176 6.97035 17.6339 7.19082 17.8084C7.41129 17.9829 7.66402 18.1122 7.93454 18.1888C8.20506 18.2654 8.48804 18.2879 8.76727 18.255C9.04649 18.2221 9.31648 18.1344 9.56176 17.9969C9.60507 17.4883 9.83182 17.0128 10.1998 16.6589C7.97476 16.4089 5.64976 15.5469 5.64976 11.7219C5.63559 10.7279 6.00233 9.76616 6.67476 9.03395C6.36907 8.17016 6.40484 7.22224 6.77476 6.38395C6.77476 6.38395 7.61176 6.12195 9.52476 7.40895C11.161 6.9589 12.8885 6.9589 14.5248 7.40895C16.4368 6.10895 17.2748 6.38395 17.2748 6.38395C17.6448 7.22222 17.6805 8.17018 17.3748 9.03395C18.0492 9.7649 18.4163 10.7275 18.3998 11.7219C18.3998 15.5589 16.0618 16.4089 13.8368 16.6589C14.0754 16.9008 14.2592 17.1912 14.3757 17.5105C14.4922 17.8297 14.5386 18.1702 14.5118 18.5089C14.5118 19.8469 14.4998 20.9219 14.4998 21.2589C14.4998 21.5219 14.6868 21.8339 15.1868 21.7339C17.4354 20.9769 19.3417 19.4453 20.5656 17.4127C21.7894 15.3801 22.2511 12.9787 21.8681 10.6371C21.4852 8.29561 20.2826 6.16638 18.475 4.62953C16.6673 3.09268 14.3724 2.24824 11.9998 2.24695Z" fill="black"/>
</svg>
