<svg width="26" height="26" viewBox="0 0 26 26" fill="none" xmlns="http://www.w3.org/2000/svg">
<path d="M6.50016 23.8334C5.90433 23.8334 5.39408 23.621 4.96941 23.1964C4.54475 22.7717 4.33278 22.2618 4.3335 21.6667V10.8334C4.3335 10.2375 4.54583 9.72729 4.9705 9.30262C5.39516 8.87796 5.90505 8.66599 6.50016 8.66671H7.5835V6.50004C7.5835 5.00143 8.1118 3.72382 9.16842 2.66721C10.225 1.6106 11.5023 1.08265 13.0002 1.08337C14.4988 1.08337 15.7764 1.61168 16.833 2.66829C17.8896 3.7249 18.4176 5.00215 18.4168 6.50004V8.66671H19.5002C20.096 8.66671 20.6062 8.87904 21.0309 9.30371C21.4556 9.72838 21.6676 10.2383 21.6668 10.8334V21.6667C21.6668 22.2625 21.4545 22.7728 21.0298 23.1975C20.6052 23.6221 20.0953 23.8341 19.5002 23.8334H6.50016ZM13.0002 18.4167C13.596 18.4167 14.1062 18.2044 14.5309 17.7797C14.9556 17.355 15.1676 16.8452 15.1668 16.25C15.1668 15.6542 14.9545 15.144 14.5298 14.7193C14.1052 14.2946 13.5953 14.0827 13.0002 14.0834C12.4043 14.0834 11.8941 14.2957 11.4694 14.7204C11.0447 15.145 10.8328 15.6549 10.8335 16.25C10.8335 16.8459 11.0458 17.3561 11.4705 17.7808C11.8952 18.2055 12.4051 18.4174 13.0002 18.4167ZM9.75016 8.66671H16.2502V6.50004C16.2502 5.59726 15.9342 4.8299 15.3022 4.19796C14.6703 3.56601 13.9029 3.25004 13.0002 3.25004C12.0974 3.25004 11.33 3.56601 10.6981 4.19796C10.0661 4.8299 9.75016 5.59726 9.75016 6.50004V8.66671Z" fill="white"/>
</svg>
