<svg width="395" height="76" viewBox="0 0 395 76" fill="none" xmlns="http://www.w3.org/2000/svg">
<g filter="url(#filter0_d_818_293)">
<path d="M54.6223 42.936C54.6223 42.936 54.3236 48.248 53.7263 58.872C52.9156 59.2133 51.8276 59.64 50.4623 60.152C49.1396 60.7067 46.7289 61.432 43.2303 62.328C39.7316 63.224 36.6596 63.672 34.0143 63.672C32.6063 63.672 31.1129 63.544 29.5343 63.288C27.9556 63.032 26.1849 62.5627 24.2222 61.88C22.2596 61.24 20.3609 60.408 18.5263 59.384C16.7343 58.4027 14.9636 57.08 13.2143 55.416C11.4649 53.752 9.95025 51.896 8.67025 49.848C7.39025 47.7573 6.34492 45.2187 5.53425 42.232C4.76625 39.2453 4.38225 36.0027 4.38225 32.504C4.38225 27.6827 5.04358 23.3947 6.36625 19.64C7.73158 15.8853 9.41692 12.9627 11.4223 10.872C13.4276 8.73866 15.7316 6.98933 18.3343 5.624C20.9369 4.25866 23.3263 3.36266 25.5023 2.936C27.6783 2.46666 29.7903 2.232 31.8383 2.232C37.1716 2.232 42.4623 3.74666 47.7103 6.776C48.1796 7.07467 48.4143 7.224 48.4143 7.224C48.4569 8.33333 48.4783 9.528 48.4783 10.808C48.4783 12.1307 48.4569 13.0907 48.4143 13.688L47.9663 17.912C47.3689 17.528 46.5369 17.0587 45.4703 16.504C44.4463 15.9493 42.5689 15.2027 39.8383 14.264C37.1503 13.3253 34.7396 12.856 32.6063 12.856C30.6863 12.856 28.7663 13.2613 26.8463 14.072C24.9263 14.84 23.0916 15.992 21.3423 17.528C19.5929 19.0213 18.1636 21.0693 17.0543 23.672C15.9876 26.2747 15.4543 29.2187 15.4543 32.504C15.4543 35.7467 15.9876 38.6693 17.0543 41.272C18.1209 43.8747 19.5076 45.944 21.2143 47.48C22.9209 48.9733 24.7129 50.1253 26.5903 50.936C28.5103 51.7467 30.4089 52.152 32.2863 52.152H32.6063C38.7929 52.024 42.6116 51.2133 44.0623 49.72C44.0623 49.5067 44.0409 49.1653 43.9983 48.696C43.9983 48.184 43.9983 47.8 43.9983 47.544C43.9983 46.8613 43.9983 45.8373 43.9983 44.472C44.0409 43.064 44.0623 42.0187 44.0623 41.336V39.096C42.5689 39.1387 40.0303 39.16 36.4463 39.16H29.4063V34.872C29.4063 34.6587 29.3849 34.3387 29.3423 33.912C29.3423 33.4853 29.3423 33.1867 29.3423 33.016L29.4703 27.832C29.9823 27.6613 31.4756 27.576 33.9503 27.576C35.8276 27.576 37.4276 27.5973 38.7503 27.64C38.7929 27.64 41.0116 27.7467 45.4062 27.96L54.9423 28.92V29.432C54.9423 29.9013 54.9209 30.6907 54.8783 31.8C54.8356 32.8667 54.7929 34.424 54.7503 36.472C54.7076 38.4773 54.6649 40.632 54.6223 42.936ZM91.4243 29.752C91.4243 31.3307 91.0403 40.12 90.2723 56.12C88.8643 56.0773 87.3923 55.992 85.8563 55.864L82.0163 55.544C82.4429 51.9173 82.6563 49.9547 82.6563 49.656V47.544C82.6563 47.0747 82.6349 45.9227 82.5923 44.088C82.5923 42.2533 82.5923 40.696 82.5923 39.416C82.3363 39.416 81.3336 39.4587 79.5843 39.544C77.8349 39.6293 75.9576 39.7147 73.9523 39.8C71.9896 39.8853 70.2189 39.928 68.6403 39.928L68.1923 55.608C67.9789 55.608 67.5949 55.6293 67.0403 55.672C66.5283 55.7147 65.7176 55.7573 64.6083 55.8H59.0403C58.9976 54.008 58.9336 49.848 58.8483 43.32C58.8056 36.792 58.7629 30.6053 58.7203 24.76C58.6776 18.872 58.6562 15.8 58.6562 15.544L62.9443 15.48H64.2883L68.7043 15.672C68.8323 16.4827 68.8963 18.9573 68.8963 23.096C68.8963 26.2107 68.8749 28.8773 68.8323 31.096V31.544C69.0883 31.544 69.8136 31.544 71.0083 31.544C72.2456 31.5013 73.3763 31.48 74.4003 31.48H82.5923V15.672C83.0616 15.5867 84.4909 15.544 86.8803 15.544C87.9469 15.544 88.8216 15.5653 89.5043 15.608C90.1869 15.6507 90.6136 15.6933 90.7843 15.736L90.9762 15.8C91.2749 20.792 91.4243 25.4427 91.4243 29.752ZM116.307 14.52C117.715 14.52 119.145 14.6907 120.595 15.032C122.046 15.3307 123.625 15.9493 125.331 16.888C127.081 17.8267 128.638 19.0427 130.003 20.536C131.411 21.9867 132.627 24.0133 133.651 26.616C134.718 29.2187 135.401 32.184 135.699 35.512C135.742 35.896 135.763 36.472 135.763 37.24C135.763 42.7867 133.801 47.48 129.875 51.32C125.993 55.16 121.406 57.1227 116.115 57.208H115.859C114.451 57.208 112.958 57.016 111.379 56.632C109.843 56.2907 108.158 55.608 106.323 54.584C104.531 53.56 102.91 52.28 101.459 50.744C100.051 49.1653 98.8779 47.0747 97.9393 44.472C97.0006 41.8267 96.5312 38.84 96.5312 35.512C96.5312 32.184 97.0219 29.2187 98.0033 26.616C98.9846 24.0133 100.201 21.9867 101.651 20.536C103.102 19.0427 104.766 17.8267 106.643 16.888C108.563 15.9493 110.291 15.3307 111.827 15.032C113.363 14.6907 114.857 14.52 116.307 14.52ZM115.987 49.144C119.699 49.144 122.622 48.0133 124.755 45.752C126.931 43.448 128.019 40.0347 128.019 35.512C128.019 31.16 126.761 27.8107 124.243 25.464C121.769 23.0747 119.059 21.88 116.115 21.88C113.171 21.88 110.441 23.0747 107.923 25.464C105.449 27.8107 104.211 31.16 104.211 35.512C104.211 39.992 105.257 43.384 107.347 45.688C109.481 47.992 112.361 49.144 115.987 49.144ZM153.207 31.288C163.105 31.288 168.055 35.7253 168.055 44.6C168.055 46.9893 167.393 49.016 166.071 50.68C164.791 52.344 163.105 53.5173 161.015 54.2C158.924 54.9253 157.004 55.416 155.255 55.672C153.548 55.928 151.799 56.056 150.007 56.056H148.983C147.532 56.0133 146.017 55.8 144.439 55.416C142.86 55.0747 141.644 54.712 140.791 54.328L139.511 53.816C139.34 52.7493 139.255 51 139.255 48.568V44.728C141.9 46.3067 145.313 47.1387 149.495 47.224H150.647C153.505 47.224 155.532 46.9893 156.727 46.52C157.921 46.008 158.519 45.176 158.519 44.024C158.519 43.3413 158.519 42.8933 158.519 42.68C158.519 42.4667 158.412 42.04 158.199 41.4C157.985 40.7173 157.687 40.2267 157.303 39.928C156.919 39.6293 156.279 39.3307 155.383 39.032C154.529 38.6907 153.484 38.4987 152.247 38.456C150.369 38.3707 148.919 38.2853 147.895 38.2C146.871 38.1147 145.612 37.8587 144.119 37.432C142.625 36.9627 141.473 36.344 140.663 35.576C139.895 34.808 139.212 33.6987 138.615 32.248C138.017 30.7547 137.719 28.9413 137.719 26.808C137.719 19.3413 142.625 15.608 152.439 15.608H153.655C155.105 15.6507 156.705 15.928 158.455 16.44C160.247 16.9093 161.676 17.3787 162.743 17.848L164.343 18.616C164.513 19.6827 164.599 21.432 164.599 23.864V27.704C161.996 26.5093 159.223 25.464 156.279 24.568C154.828 24.1413 153.335 23.928 151.799 23.928C148.428 23.928 146.743 24.9947 146.743 27.128C146.743 28.7493 147.319 29.8587 148.471 30.456C149.623 31.0107 151.201 31.288 153.207 31.288ZM168.259 14.84C171.289 14.6693 175.001 14.584 179.395 14.584C182.467 14.584 185.731 14.6267 189.187 14.712C192.643 14.7547 195.331 14.8187 197.251 14.904L200.131 15.032C200.345 15.3307 200.451 16.2907 200.451 17.912C200.451 19.4053 200.345 21.112 200.131 23.032C199.619 23.0747 195.737 23.096 188.483 23.096C188.185 29.88 187.737 40.568 187.139 55.16C185.475 55.2453 183.875 55.288 182.339 55.288H179.011V23.096C177.177 23.096 174.979 23.1173 172.419 23.16C169.902 23.16 168.451 23.16 168.067 23.16C167.811 21.624 167.683 20.28 167.683 19.128C167.683 18.3173 167.726 17.5493 167.811 16.824C167.897 16.0987 167.982 15.5867 168.067 15.288L168.259 14.84ZM232.461 8.184C232.674 7.97066 232.973 7.69333 233.357 7.352C233.783 7.01066 234.637 6.41333 235.917 5.56C237.197 4.70667 238.498 3.96 239.821 3.32C241.186 2.63733 242.85 2.04 244.813 1.528C246.818 0.973331 248.781 0.695999 250.701 0.695999C253.303 0.695999 255.842 1.25067 258.317 2.36C260.834 3.46933 263.095 5.048 265.101 7.096C267.149 9.10133 268.791 11.704 270.029 14.904C271.266 18.0613 271.885 21.56 271.885 25.4C271.885 28.3867 271.394 31.1813 270.413 33.784C269.474 36.344 268.258 38.4773 266.765 40.184C265.271 41.8907 263.607 43.3627 261.773 44.6C259.938 45.8373 258.146 46.7333 256.397 47.288C254.647 47.8427 253.026 48.12 251.533 48.12H251.213C246.647 47.992 242.103 46.904 237.581 44.856C237.325 43.32 237.197 40.8027 237.197 37.304V31.8C241.207 34.0613 244.621 35.192 247.437 35.192C249.015 35.192 250.637 34.8507 252.301 34.168C253.965 33.4853 255.479 32.3333 256.845 30.712C258.21 29.048 258.893 27.1067 258.893 24.888C258.893 21.6027 257.826 19.0427 255.693 17.208C253.559 15.3733 251.149 14.456 248.461 14.456H248.269C246.647 14.4987 244.685 14.9253 242.381 15.736C240.077 16.5467 237.943 17.656 235.981 19.064C234.018 20.472 232.845 21.8587 232.461 23.224C232.119 24.5467 231.863 27.0853 231.693 30.84C231.522 34.5947 231.415 38.712 231.373 43.192C231.373 47.6293 231.351 50.1893 231.309 50.872L230.861 61.944C228.471 62.072 226.167 62.136 223.949 62.136H219.149V4.664C220.898 4.36533 223.053 4.152 225.613 4.024C226.466 3.98133 227.661 3.96 229.197 3.96L232.781 4.024L232.461 8.184ZM296.432 14.52C297.84 14.52 299.27 14.6907 300.72 15.032C302.171 15.3307 303.75 15.9493 305.456 16.888C307.206 17.8267 308.763 19.0427 310.128 20.536C311.536 21.9867 312.752 24.0133 313.776 26.616C314.843 29.2187 315.526 32.184 315.824 35.512C315.867 35.896 315.888 36.472 315.888 37.24C315.888 42.7867 313.926 47.48 310 51.32C306.118 55.16 301.531 57.1227 296.24 57.208H295.984C294.576 57.208 293.083 57.016 291.504 56.632C289.968 56.2907 288.283 55.608 286.448 54.584C284.656 53.56 283.035 52.28 281.584 50.744C280.176 49.1653 279.003 47.0747 278.064 44.472C277.126 41.8267 276.656 38.84 276.656 35.512C276.656 32.184 277.147 29.2187 278.128 26.616C279.11 24.0133 280.326 21.9867 281.776 20.536C283.227 19.0427 284.891 17.8267 286.768 16.888C288.688 15.9493 290.416 15.3307 291.952 15.032C293.488 14.6907 294.982 14.52 296.432 14.52ZM296.112 49.144C299.824 49.144 302.747 48.0133 304.88 45.752C307.056 43.448 308.144 40.0347 308.144 35.512C308.144 31.16 306.886 27.8107 304.368 25.464C301.894 23.0747 299.184 21.88 296.24 21.88C293.296 21.88 290.566 23.0747 288.048 25.464C285.574 27.8107 284.336 31.16 284.336 35.512C284.336 39.992 285.382 43.384 287.472 45.688C289.606 47.992 292.486 49.144 296.112 49.144ZM350.612 29.752C350.612 31.3307 350.228 40.12 349.46 56.12C348.052 56.0773 346.58 55.992 345.044 55.864L341.204 55.544C340.82 55.0747 339.177 52.536 336.276 47.928C335.764 47.0747 335.06 45.9653 334.164 44.6C333.31 43.192 332.244 41.4853 330.964 39.48C329.684 37.432 328.681 35.8107 327.956 34.616C327.87 37.8587 327.828 39.6293 327.828 39.928L327.38 55.608C327.166 55.608 326.782 55.6293 326.228 55.672C325.716 55.7147 324.905 55.7573 323.796 55.8H318.228C318.185 54.008 318.121 49.848 318.036 43.32C317.993 36.792 317.95 30.6053 317.908 24.76C317.865 18.872 317.844 15.8 317.844 15.544L322.132 15.48H323.476L327.892 15.672C328.873 16.824 331.604 21.176 336.084 28.728C336.126 28.7707 336.873 30.0507 338.324 32.568C339.774 35.0427 340.521 36.3013 340.564 36.344C340.734 36.6427 341.14 37.3467 341.78 38.456V15.672C342.249 15.5867 343.678 15.544 346.068 15.544C347.134 15.544 348.009 15.5653 348.692 15.608C349.374 15.6507 349.801 15.6933 349.972 15.736L350.164 15.8C350.462 20.792 350.612 25.4427 350.612 29.752ZM390.599 42.744C390.172 50.1253 389.959 53.816 389.959 53.816C384.967 56.0347 380.401 57.144 376.263 57.144C374.855 57.144 373.34 56.952 371.719 56.568C370.097 56.2267 368.305 55.544 366.343 54.52C364.423 53.5387 362.695 52.28 361.159 50.744C359.623 49.208 358.321 47.1173 357.255 44.472C356.231 41.8267 355.719 38.84 355.719 35.512C355.719 32.184 356.188 29.2187 357.127 26.616C358.065 24.0133 359.217 21.9867 360.583 20.536C361.991 19.0427 363.591 17.8267 365.383 16.888C367.175 15.9493 368.817 15.3307 370.311 15.032C371.847 14.6907 373.319 14.52 374.727 14.52C376.561 14.52 378.439 14.8187 380.359 15.416C382.321 15.9707 383.793 16.5253 384.775 17.08L386.311 17.976V22.456L385.991 25.4C382.193 23.0533 378.631 21.88 375.303 21.88C372.359 21.88 369.628 23.0747 367.111 25.464C364.636 27.8107 363.399 31.16 363.399 35.512C363.399 39.8213 364.615 43.1707 367.047 45.56C369.521 47.9493 372.209 49.144 375.111 49.144H375.303C379.655 49.016 382.3 48.4613 383.239 47.48V40.12C382.727 40.12 381.873 40.1413 380.679 40.184C379.484 40.184 378.588 40.184 377.991 40.184L373.063 40.12V35.896L373.127 32.248C373.511 32.12 374.556 32.056 376.263 32.056C376.647 32.056 377.735 32.0987 379.527 32.184H380.295C380.807 32.2267 381.447 32.2693 382.215 32.312C383.025 32.3547 383.687 32.376 384.199 32.376C388.593 32.8027 390.791 33.016 390.791 33.016V33.4C390.791 33.6987 390.769 34.232 390.727 35C390.727 35.768 390.705 36.856 390.663 38.264C390.62 39.6293 390.599 41.1227 390.599 42.744Z" fill="white"/>
</g>
<defs>
<filter id="filter0_d_818_293" x="0.382324" y="0.695984" width="394.408" height="74.976" filterUnits="userSpaceOnUse" color-interpolation-filters="sRGB">
<feFlood flood-opacity="0" result="BackgroundImageFix"/>
<feColorMatrix in="SourceAlpha" type="matrix" values="0 0 0 0 0 0 0 0 0 0 0 0 0 0 0 0 0 0 127 0" result="hardAlpha"/>
<feOffset dy="8"/>
<feGaussianBlur stdDeviation="2"/>
<feComposite in2="hardAlpha" operator="out"/>
<feColorMatrix type="matrix" values="0 0 0 0 0 0 0 0 0 0 0 0 0 0 0 0 0 0 0.4 0"/>
<feBlend mode="normal" in2="BackgroundImageFix" result="effect1_dropShadow_818_293"/>
<feBlend mode="normal" in="SourceGraphic" in2="effect1_dropShadow_818_293" result="shape"/>
</filter>
</defs>
</svg>
