<svg width="6" height="24" viewBox="0 0 6 24" fill="none" xmlns="http://www.w3.org/2000/svg">
<path d="M3 18.75C3.59674 18.75 4.16903 18.9871 4.59099 19.409C5.01295 19.831 5.25 20.4033 5.25 21C5.25 21.5967 5.01295 22.169 4.59099 22.591C4.16903 23.0129 3.59674 23.25 3 23.25C2.40326 23.25 1.83097 23.0129 1.40901 22.591C0.987053 22.169 0.75 21.5967 0.75 21C0.75 20.4033 0.987053 19.831 1.40901 19.409C1.83097 18.9871 2.40326 18.75 3 18.75ZM3 9.75C3.59674 9.75 4.16903 9.98705 4.59099 10.409C5.01295 10.831 5.25 11.4033 5.25 12C5.25 12.5967 5.01295 13.169 4.59099 13.591C4.16903 14.0129 3.59674 14.25 3 14.25C2.40326 14.25 1.83097 14.0129 1.40901 13.591C0.987053 13.169 0.75 12.5967 0.75 12C0.75 11.4033 0.987053 10.831 1.40901 10.409C1.83097 9.98705 2.40326 9.75 3 9.75ZM3 0.75C3.59674 0.75 4.16903 0.987053 4.59099 1.40901C5.01295 1.83097 5.25 2.40326 5.25 3C5.25 3.59674 5.01295 4.16903 4.59099 4.59099C4.16903 5.01295 3.59674 5.25 3 5.25C2.40326 5.25 1.83097 5.01295 1.40901 4.59099C0.987053 4.16903 0.75 3.59674 0.75 3C0.75 2.40326 0.987053 1.83097 1.40901 1.40901C1.83097 0.987053 2.40326 0.75 3 0.75Z" fill="#D4D4D4"/>
</svg>
