<svg width="32" height="32" viewBox="0 0 32 32" fill="none" xmlns="http://www.w3.org/2000/svg">
<g clip-path="url(#clip0_1711_302)">
<mask id="mask0_1711_302" style="mask-type:luminance" maskUnits="userSpaceOnUse" x="0" y="0" width="32" height="32">
<path d="M32 0H-1.19209e-06V32H32V0Z" fill="white"/>
<path fill-rule="evenodd" clip-rule="evenodd" d="M9.81426 12.5933C9.69008 12.4897 9.5467 12.4116 9.39232 12.3634C9.23794 12.3153 9.07558 12.298 8.91453 12.3127C8.75348 12.3273 8.59689 12.3735 8.45372 12.4487C8.31054 12.5239 8.18359 12.6265 8.0801 12.7508L5.51641 15.8277C5.3167 16.0794 5.22333 16.3992 5.25626 16.7189C5.28919 17.0385 5.4458 17.3325 5.69263 17.5382C5.93946 17.7439 6.25695 17.8449 6.57726 17.8197C6.89757 17.7944 7.19531 17.6449 7.40687 17.4031L9.97179 14.3262C10.1806 14.0755 10.2813 13.7521 10.2518 13.4271C10.2222 13.1022 10.0649 12.8022 9.81426 12.5933Z" fill="black"/>
<path fill-rule="evenodd" clip-rule="evenodd" d="M9.81426 20.6376C10.0649 20.4286 10.2222 20.1287 10.2518 19.8037C10.2813 19.4787 10.1806 19.1554 9.97179 18.9046L7.40687 15.8277C7.30486 15.6991 7.17818 15.5923 7.03426 15.5134C6.89035 15.4345 6.73211 15.3852 6.56886 15.3684C6.40561 15.3516 6.24065 15.3676 6.08367 15.4155C5.9267 15.4634 5.78089 15.5421 5.65481 15.6472C5.52874 15.7523 5.42495 15.8815 5.34955 16.0272C5.27415 16.173 5.22866 16.3324 5.21577 16.496C5.20287 16.6596 5.22283 16.8241 5.27446 16.9799C5.32609 17.1357 5.40835 17.2796 5.51641 17.4031L8.0801 20.48C8.18359 20.6043 8.31054 20.7069 8.45372 20.7821C8.59689 20.8573 8.75348 20.9035 8.91453 20.9182C9.07558 20.9328 9.23794 20.9155 9.39232 20.8674C9.5467 20.8192 9.69008 20.7411 9.81426 20.6376Z" fill="black"/>
<path fill-rule="evenodd" clip-rule="evenodd" d="M6.76933 16.6154C6.76933 16.9419 6.89899 17.2549 7.12981 17.4857C7.36062 17.7165 7.67367 17.8462 8.00009 17.8462H16.0001C16.3265 17.8462 16.6396 17.7165 16.8704 17.4857C17.1012 17.2549 17.2309 16.9419 17.2309 16.6154C17.2309 16.289 17.1012 15.976 16.8704 15.7452C16.6396 15.5143 16.3265 15.3847 16.0001 15.3847H8.00009C7.67367 15.3847 7.36062 15.5143 7.12981 15.7452C6.89899 15.976 6.76933 16.289 6.76933 16.6154ZM24.6155 8.00006C24.6155 7.67364 24.4858 7.36059 24.255 7.12977C24.0242 6.89896 23.7111 6.76929 23.3847 6.76929H12.3078C11.9814 6.76929 11.6683 6.89896 11.4375 7.12977C11.2067 7.36059 11.077 7.67364 11.077 8.00006C11.077 8.32648 11.2067 8.63953 11.4375 8.87034C11.6683 9.10116 11.9814 9.23083 12.3078 9.23083H23.3847C23.7111 9.23083 24.0242 9.10116 24.255 8.87034C24.4858 8.63953 24.6155 8.32648 24.6155 8.00006ZM24.6155 25.2308C24.6155 24.9044 24.4858 24.5914 24.255 24.3605C24.0242 24.1297 23.7111 24.0001 23.3847 24.0001H12.3078C11.9814 24.0001 11.6683 24.1297 11.4375 24.3605C11.2067 24.5914 11.077 24.9044 11.077 25.2308C11.077 25.5572 11.2067 25.8703 11.4375 26.1011C11.6683 26.3319 11.9814 26.4616 12.3078 26.4616H23.3847C23.7111 26.4616 24.0242 26.3319 24.255 26.1011C24.4858 25.8703 24.6155 25.5572 24.6155 25.2308Z" fill="black"/>
<path fill-rule="evenodd" clip-rule="evenodd" d="M12.3078 6.76929C11.9814 6.76929 11.6683 6.89896 11.4375 7.12977C11.2067 7.36059 11.077 7.67364 11.077 8.00006V12.9231C11.077 13.2496 11.2067 13.5626 11.4375 13.7934C11.6683 14.0242 11.9814 14.1539 12.3078 14.1539C12.6342 14.1539 12.9473 14.0242 13.1781 13.7934C13.4089 13.5626 13.5386 13.2496 13.5386 12.9231V8.00006C13.5386 7.67364 13.4089 7.36059 13.1781 7.12977C12.9473 6.89896 12.6342 6.76929 12.3078 6.76929ZM12.3078 19.077C11.9814 19.077 11.6683 19.2067 11.4375 19.4375C11.2067 19.6683 11.077 19.9813 11.077 20.3077V25.2308C11.077 25.5572 11.2067 25.8703 11.4375 26.1011C11.6683 26.3319 11.9814 26.4616 12.3078 26.4616C12.6342 26.4616 12.9473 26.3319 13.1781 26.1011C13.4089 25.8703 13.5386 25.5572 13.5386 25.2308V20.3077C13.5386 19.9813 13.4089 19.6683 13.1781 19.4375C12.9473 19.2067 12.6342 19.077 12.3078 19.077ZM23.3847 6.76929C23.0583 6.76929 22.7452 6.89896 22.5144 7.12977C22.2836 7.36059 22.1539 7.67364 22.1539 8.00006V25.2308C22.1539 25.5572 22.2836 25.8703 22.5144 26.1011C22.7452 26.3319 23.0583 26.4616 23.3847 26.4616C23.7111 26.4616 24.0242 26.3319 24.255 26.1011C24.4858 25.8703 24.6155 25.5572 24.6155 25.2308V8.00006C24.6155 7.67364 24.4858 7.36059 24.255 7.12977C24.0242 6.89896 23.7111 6.76929 23.3847 6.76929Z" fill="black"/>
</mask>
<g mask="url(#mask0_1711_302)">
<path d="M16 32C7.16344 32 0 24.8366 0 16C0 7.16344 7.16344 0 16 0C24.8366 0 32 7.16344 32 16C32 24.8366 24.8366 32 16 32Z" fill="#CDCDCD"/>
</g>
</g>
<defs>
<clipPath id="clip0_1711_302">
<rect width="32" height="32" fill="white" transform="matrix(-1 0 0 1 32 0)"/>
</clipPath>
</defs>
</svg>
