<svg width="16" height="16" viewBox="0 0 16 16" fill="none" xmlns="http://www.w3.org/2000/svg">
<path d="M10.6667 11.3333V12.6667H1.33337V11.3333C1.33337 11.3333 1.33337 8.66666 6.00004 8.66666C10.6667 8.66666 10.6667 11.3333 10.6667 11.3333ZM8.33337 4.99999C8.33337 4.5385 8.19653 4.08738 7.94014 3.70366C7.68375 3.31995 7.31933 3.02088 6.89297 2.84428C6.46661 2.66767 5.99745 2.62146 5.54483 2.7115C5.09221 2.80153 4.67645 3.02376 4.35012 3.35008C4.0238 3.6764 3.80157 4.09216 3.71154 4.54478C3.62151 4.99741 3.66772 5.46656 3.84432 5.89292C4.02093 6.31928 4.32 6.6837 4.70371 6.94009C5.08742 7.19648 5.53855 7.33333 6.00004 7.33333C6.61888 7.33333 7.21237 7.08749 7.64996 6.64991C8.08754 6.21233 8.33337 5.61883 8.33337 4.99999ZM10.6267 8.66666C11.0365 8.98383 11.3719 9.38695 11.6092 9.84767C11.8464 10.3084 11.9798 10.8155 12 11.3333V12.6667H14.6667V11.3333C14.6667 11.3333 14.6667 8.91333 10.6267 8.66666ZM10 2.66666C9.54117 2.66411 9.09238 2.8013 8.71337 3.05999C9.11833 3.62582 9.33608 4.30419 9.33608 4.99999C9.33608 5.6958 9.11833 6.37417 8.71337 6.93999C9.09238 7.19869 9.54117 7.33588 10 7.33333C10.6189 7.33333 11.2124 7.08749 11.65 6.64991C12.0875 6.21233 12.3334 5.61883 12.3334 4.99999C12.3334 4.38116 12.0875 3.78766 11.65 3.35008C11.2124 2.91249 10.6189 2.66666 10 2.66666Z" fill="white"/>
</svg>
