<svg width="34" height="33" viewBox="0 0 34 33" fill="none" xmlns="http://www.w3.org/2000/svg">
<circle cx="17.0173" cy="16.3869" r="11.1127" fill="url(#paint0_radial_227_186)"/>
<path d="M17.0933 31.912C17.0645 31.9182 17.0391 31.9235 17.0173 31.9281C16.9955 31.9235 16.9701 31.9182 16.9414 31.912C16.826 31.8874 16.6559 31.8503 16.439 31.8007C16.005 31.7016 15.3839 31.5525 14.6381 31.3536C13.1449 30.9554 11.1589 30.3594 9.17714 29.5667C7.18972 28.7717 5.23519 27.7901 3.78601 26.6308C2.32869 25.4649 1.46558 24.1887 1.46558 22.8076C1.46558 22.0744 1.65112 21.1241 1.94957 20.0298C2.2462 18.9422 2.64273 17.7521 3.04509 16.545L3.04783 16.5368C3.44716 15.3388 3.85206 14.1241 4.15669 13.0072C4.46018 11.8944 4.67592 10.8382 4.67592 9.96624C4.67592 8.21078 3.80596 6.50345 2.98677 5.27467C2.57176 4.65214 2.15747 4.13436 1.84682 3.77193C1.77945 3.69334 1.71685 3.62192 1.66004 3.55819L4.26725 0.950987C6.13375 1.91004 8.40361 2.44038 10.5966 2.44038C12.8266 2.44038 15.1486 1.87734 17.0173 0.902672C18.886 1.87734 21.208 2.44038 23.438 2.44038C25.631 2.44038 27.9009 1.91004 29.7674 0.950987L32.3746 3.55819C32.3178 3.62192 32.2552 3.69334 32.1878 3.77193C31.8771 4.13436 31.4628 4.65214 31.0478 5.27467C30.2286 6.50345 29.3587 8.21078 29.3587 9.96624C29.3587 10.8382 29.5744 11.8944 29.8779 13.0072C30.1825 14.1241 30.5874 15.3388 30.9868 16.5368L30.9895 16.545C31.3919 17.7521 31.7884 18.9422 32.085 20.0298C32.3835 21.1241 32.569 22.0744 32.569 22.8076C32.569 24.1887 31.7059 25.4649 30.2486 26.6308C28.7994 27.7901 26.8449 28.7717 24.8575 29.5667C22.8757 30.3594 20.8897 30.9554 19.3966 31.3536C18.6507 31.5525 18.0296 31.7016 17.5956 31.8007C17.3787 31.8503 17.2086 31.8874 17.0933 31.912ZM21.6546 23.958L22.6698 24.571L22.4 23.4162L21.1527 18.0772L25.289 14.5187L26.1895 13.744L25.006 13.6416L19.5588 13.1699L17.4292 8.16529L16.9668 7.07859L16.5084 8.16698L14.3943 13.186L8.94831 13.6576L7.76485 13.7601L8.66536 14.5348L12.8015 18.0931L11.5545 23.4159L11.2832 24.5739L12.3004 23.9576L16.9696 21.1287L21.6546 23.958Z" fill="#006176" stroke="#001940"/>
<defs>
<radialGradient id="paint0_radial_227_186" cx="0" cy="0" r="1" gradientUnits="userSpaceOnUse" gradientTransform="translate(17.0173 16.3869) rotate(90) scale(11.1127)">
<stop stop-color="white"/>
<stop offset="0.25" stop-color="#FFFB9B"/>
<stop offset="0.640625" stop-color="#FFF625"/>
<stop offset="1" stop-color="#FFF500"/>
</radialGradient>
</defs>
</svg>
