<svg width="42" height="41" viewBox="0 0 42 41" fill="none" xmlns="http://www.w3.org/2000/svg">
<g filter="url(#filter0_d_227_186)">
<circle cx="21.0173" cy="16.3869" r="11.1127" fill="url(#paint0_radial_227_186)"/>
<path d="M21.0933 31.912C21.0645 31.9182 21.0391 31.9235 21.0173 31.9281C20.9955 31.9235 20.9701 31.9182 20.9414 31.912C20.826 31.8874 20.6559 31.8503 20.439 31.8007C20.005 31.7016 19.3839 31.5525 18.6381 31.3536C17.1449 30.9554 15.1589 30.3594 13.1771 29.5667C11.1897 28.7717 9.23519 27.7901 7.78601 26.6308C6.32869 25.4649 5.46558 24.1887 5.46558 22.8076C5.46558 22.0744 5.65112 21.1241 5.94957 20.0298C6.2462 18.9422 6.64273 17.7521 7.04509 16.545L7.04783 16.5368C7.44716 15.3388 7.85206 14.1241 8.15669 13.0072C8.46018 11.8944 8.67592 10.8382 8.67592 9.96624C8.67592 8.21078 7.80596 6.50345 6.98677 5.27467C6.57176 4.65214 6.15747 4.13436 5.84682 3.77193C5.77945 3.69334 5.71685 3.62192 5.66004 3.55819L8.26725 0.950987C10.1338 1.91004 12.4036 2.44038 14.5966 2.44038C16.8266 2.44038 19.1486 1.87734 21.0173 0.902672C22.886 1.87734 25.208 2.44038 27.438 2.44038C29.631 2.44038 31.9009 1.91004 33.7674 0.950987L36.3746 3.55819C36.3178 3.62192 36.2552 3.69334 36.1878 3.77193C35.8771 4.13436 35.4628 4.65214 35.0478 5.27467C34.2286 6.50345 33.3587 8.21078 33.3587 9.96624C33.3587 10.8382 33.5744 11.8944 33.8779 13.0072C34.1825 14.1241 34.5874 15.3388 34.9868 16.5368L34.9895 16.545C35.3919 17.7521 35.7884 18.9422 36.085 20.0298C36.3835 21.1241 36.569 22.0744 36.569 22.8076C36.569 24.1887 35.7059 25.4649 34.2486 26.6308C32.7994 27.7901 30.8449 28.7717 28.8575 29.5667C26.8757 30.3594 24.8897 30.9554 23.3966 31.3536C22.6507 31.5525 22.0296 31.7016 21.5956 31.8007C21.3787 31.8503 21.2086 31.8874 21.0933 31.912ZM25.6546 23.958L26.6698 24.571L26.4 23.4162L25.1527 18.0772L29.289 14.5187L30.1895 13.744L29.006 13.6416L23.5588 13.1699L21.4292 8.16529L20.9668 7.07859L20.5084 8.16698L18.3943 13.186L12.9483 13.6576L11.7649 13.7601L12.6654 14.5348L16.8015 18.0931L15.5545 23.4159L15.2832 24.5739L16.3004 23.9576L20.9696 21.1287L25.6546 23.958Z" fill="#006176" stroke="#001940"/>
</g>
<defs>
<filter id="filter0_d_227_186" x="0.965576" y="0.335205" width="40.1035" height="40.1035" filterUnits="userSpaceOnUse" color-interpolation-filters="sRGB">
<feFlood flood-opacity="0" result="BackgroundImageFix"/>
<feColorMatrix in="SourceAlpha" type="matrix" values="0 0 0 0 0 0 0 0 0 0 0 0 0 0 0 0 0 0 127 0" result="hardAlpha"/>
<feOffset dy="4"/>
<feGaussianBlur stdDeviation="2"/>
<feComposite in2="hardAlpha" operator="out"/>
<feColorMatrix type="matrix" values="0 0 0 0 0 0 0 0 0 0 0 0 0 0 0 0 0 0 0.25 0"/>
<feBlend mode="normal" in2="BackgroundImageFix" result="effect1_dropShadow_227_186"/>
<feBlend mode="normal" in="SourceGraphic" in2="effect1_dropShadow_227_186" result="shape"/>
</filter>
<radialGradient id="paint0_radial_227_186" cx="0" cy="0" r="1" gradientUnits="userSpaceOnUse" gradientTransform="translate(21.0173 16.3869) rotate(90) scale(11.1127)">
<stop stop-color="white"/>
<stop offset="0.25" stop-color="#FFFB9B"/>
<stop offset="0.640625" stop-color="#FFF625"/>
<stop offset="1" stop-color="#FFF500"/>
</radialGradient>
</defs>
</svg>
