<svg width="26" height="26" viewBox="0 0 26 26" fill="none" xmlns="http://www.w3.org/2000/svg">
<path d="M7.3125 8.53125C8.775 5.11875 10.725 4.46875 14.625 4.46875C19.5 4.46875 20.7188 6.825 21.5312 11.375H25.8375C25.025 5.0375 19.6625 0 13 0C8.125 0 3.9 2.6 1.7875 6.6625L0 4.875V11.375H6.5L7.3125 8.53125ZM26 14.625H19.3375L18.6875 17.4688C17.225 20.8812 16.25 21.125 12.1875 21.125C7.475 21.125 4.875 19.175 4.0625 14.625H0C0.8125 20.9625 6.3375 26 12.8375 26C17.7125 26 21.9375 23.2375 24.2125 19.3375L26 21.125V14.625Z" fill="#C7C7C7"/>
</svg>
