<svg width="32" height="32" viewBox="0 0 32 32" fill="none" xmlns="http://www.w3.org/2000/svg">
<path d="M16.0156 12.2063C15.0813 12.2063 14.2063 12.5688 13.5438 13.2313C12.8844 13.8938 12.5188 14.7688 12.5188 15.7031C12.5188 16.6375 12.8844 17.5125 13.5438 18.175C14.2063 18.8344 15.0813 19.2 16.0156 19.2C16.95 19.2 17.825 18.8344 18.4875 18.175C19.1469 17.5125 19.5125 16.6375 19.5125 15.7031C19.5125 14.7688 19.1469 13.8938 18.4875 13.2313C18.1639 12.9052 17.7788 12.6467 17.3544 12.4707C16.9301 12.2948 16.475 12.2049 16.0156 12.2063ZM28.9 19.5656L26.8563 17.8188C26.9531 17.225 27.0031 16.6188 27.0031 16.0156C27.0031 15.4125 26.9531 14.8031 26.8563 14.2125L28.9 12.4656C29.0544 12.3335 29.1649 12.1574 29.2168 11.961C29.2687 11.7645 29.2596 11.5568 29.1906 11.3656L29.1625 11.2844C28.6001 9.71156 27.7573 8.25364 26.675 6.98127L26.6188 6.91565C26.4873 6.76112 26.3122 6.65004 26.1164 6.59705C25.9206 6.54405 25.7133 6.55163 25.5219 6.61877L22.9844 7.5219C22.0469 6.75315 21.0031 6.1469 19.8719 5.72502L19.3813 3.0719C19.3442 2.87203 19.2473 2.68816 19.1033 2.54471C18.9593 2.40125 18.775 2.30501 18.575 2.26877L18.4906 2.25315C16.8656 1.9594 15.1531 1.9594 13.5281 2.25315L13.4438 2.26877C13.2438 2.30501 13.0595 2.40125 12.9155 2.54471C12.7715 2.68816 12.6745 2.87203 12.6375 3.0719L12.1438 5.73752C11.0232 6.16276 9.97937 6.76754 9.05314 7.52815L6.49689 6.61877C6.30553 6.55109 6.09811 6.54325 5.90219 6.59627C5.70626 6.6493 5.53111 6.76069 5.40002 6.91565L5.34377 6.98127C4.26343 8.25499 3.42086 9.71255 2.85627 11.2844L2.82814 11.3656C2.68752 11.7563 2.80314 12.1938 3.11877 12.4656L5.18752 14.2313C5.09064 14.8188 5.04376 15.4188 5.04376 16.0125C5.04376 16.6125 5.09064 17.2125 5.18752 17.7938L3.12502 19.5594C2.97063 19.6916 2.86013 19.8676 2.80821 20.0641C2.7563 20.2606 2.76543 20.4682 2.83439 20.6594L2.86252 20.7406C3.42814 22.3125 4.26251 23.7656 5.35001 25.0438L5.40627 25.1094C5.53768 25.2639 5.71284 25.375 5.90865 25.428C6.10445 25.481 6.31172 25.4734 6.50314 25.4063L9.05939 24.4969C9.99064 25.2625 11.0281 25.8688 12.15 26.2875L12.6438 28.9531C12.6808 29.153 12.7777 29.3369 12.9217 29.4803C13.0658 29.6238 13.25 29.72 13.45 29.7563L13.5344 29.7719C15.1754 30.0672 16.8559 30.0672 18.4969 29.7719L18.5813 29.7563C18.7813 29.72 18.9655 29.6238 19.1095 29.4803C19.2535 29.3369 19.3505 29.153 19.3875 28.9531L19.8781 26.3C21.0094 25.875 22.0531 25.2719 22.9906 24.5031L25.5281 25.4063C25.7195 25.474 25.9269 25.4818 26.1228 25.4288C26.3188 25.3757 26.4939 25.2644 26.625 25.1094L26.6813 25.0438C27.7688 23.7594 28.6031 22.3125 29.1688 20.7406L29.1969 20.6594C29.3313 20.2719 29.2156 19.8375 28.9 19.5656ZM16.0156 21.1969C12.9813 21.1969 10.5219 18.7375 10.5219 15.7031C10.5219 12.6688 12.9813 10.2094 16.0156 10.2094C19.05 10.2094 21.5094 12.6688 21.5094 15.7031C21.5094 18.7375 19.05 21.1969 16.0156 21.1969Z" fill="#CDCDCD"/>
</svg>
