<svg width="31" height="31" viewBox="0 0 31 31" fill="none" xmlns="http://www.w3.org/2000/svg">
<path d="M3.00292 18.9421L4.98583 17.2468C4.89199 16.6716 4.84355 16.0843 4.84355 15.497C4.84355 14.9097 4.89199 14.3224 4.98583 13.7472L3.00292 12.0519C2.85336 11.9238 2.74631 11.7533 2.69602 11.563C2.64573 11.3726 2.65458 11.1715 2.72138 10.9863L2.74862 10.9075C3.29452 9.38184 4.11195 7.96749 5.16142 6.73284L5.21591 6.66926C5.34322 6.51957 5.5129 6.41196 5.70259 6.36062C5.89228 6.30928 6.09307 6.31662 6.27851 6.38166L8.73974 7.25657C9.64794 6.51184 10.6621 5.92454 11.758 5.51282L12.2333 2.93958C12.2692 2.74595 12.3631 2.56782 12.5026 2.42886C12.6421 2.28989 12.8206 2.19666 13.0143 2.16155L13.0961 2.14641C14.6733 1.86184 16.3323 1.86184 17.9096 2.14641L17.9913 2.16155C18.1851 2.19666 18.3636 2.28989 18.5031 2.42886C18.6426 2.56782 18.7365 2.74595 18.7724 2.93958L19.2507 5.52493C20.3378 5.93673 21.3502 6.52372 22.2477 7.26262L24.7271 6.38166C24.9125 6.3161 25.1135 6.3085 25.3033 6.35987C25.4931 6.41124 25.6627 6.51915 25.7897 6.66926L25.8442 6.73284C26.8925 7.96837 27.7098 9.38248 28.257 10.9075L28.2843 10.9863C28.4205 11.3647 28.3085 11.7885 28.0027 12.0519L25.9956 13.7654C26.0894 14.3345 26.1349 14.9157 26.1349 15.494C26.1349 16.0752 26.0894 16.6565 25.9956 17.2226L28.0027 18.9361C28.1523 19.0641 28.2593 19.2346 28.3096 19.425C28.3599 19.6153 28.3511 19.8165 28.2843 20.0017L28.257 20.0804C27.7091 21.6062 26.8977 23.0139 25.8442 24.2551L25.7897 24.3187C25.6624 24.4684 25.4927 24.576 25.3031 24.6273C25.1134 24.6787 24.9126 24.6713 24.7271 24.6063L22.2477 23.7253C21.3456 24.467 20.3375 25.0543 19.2507 25.463L18.7724 28.0484C18.7365 28.242 18.6426 28.4201 18.5031 28.5591C18.3636 28.6981 18.1851 28.7913 17.9913 28.8264L17.9096 28.8415C16.3178 29.1276 14.6878 29.1276 13.0961 28.8415L13.0143 28.8264C12.8206 28.7913 12.6421 28.6981 12.5026 28.5591C12.3631 28.4201 12.2692 28.242 12.2333 28.0484L11.758 25.4751C10.6625 25.0645 9.64266 24.4753 8.73974 23.7314L6.27851 24.6063C6.09313 24.6718 5.89219 24.6794 5.70239 24.6281C5.51259 24.5767 5.34291 24.4688 5.21591 24.3187L5.16142 24.2551C4.1079 23.0109 3.29657 21.6062 2.74862 20.0804L2.72138 20.0017C2.58515 19.6293 2.69716 19.2055 3.00292 18.9421ZM7.13525 14.1044C7.05956 14.5615 7.02021 15.0308 7.02021 15.5C7.02021 15.9693 7.05956 16.4385 7.13525 16.8956L7.33505 18.1096L5.07362 20.0441C5.41645 20.8339 5.84919 21.5815 6.36327 22.2722L9.17265 21.2762L10.1232 22.0573C10.8468 22.6506 11.652 23.1168 12.5239 23.4438L13.6773 23.8767L14.2192 26.8132C15.0742 26.9101 15.9375 26.9101 16.7925 26.8132L17.3344 23.8706L18.4787 23.4317C19.3415 23.1047 20.1437 22.6385 20.8612 22.0482L21.8118 21.2641L24.6393 22.2692C25.154 21.5759 25.5839 20.8282 25.929 20.041L23.6434 18.0884L23.8401 16.8775C23.9128 16.4264 23.9521 15.9602 23.9521 15.5C23.9521 15.0368 23.9158 14.5737 23.8401 14.1226L23.6434 12.9116L25.929 10.959C25.5869 10.1689 25.154 9.42415 24.6393 8.73088L21.8118 9.73596L20.8612 8.95188C20.1437 8.36155 19.3415 7.89534 18.4787 7.56838L17.3313 7.13547L16.7894 4.1929C15.9388 4.09602 15.0699 4.09602 14.2162 4.1929L13.6743 7.12942L12.5209 7.56233C11.652 7.88928 10.8437 8.35549 10.1202 8.94885L9.16962 9.72991L6.36025 8.73391C5.8456 9.42717 5.41572 10.1749 5.0706 10.962L7.33202 12.8965L7.13525 14.1044ZM15.4998 9.86916C18.4424 9.86916 20.8279 12.2547 20.8279 15.1973C20.8279 18.1399 18.4424 20.5254 15.4998 20.5254C12.5572 20.5254 10.1717 18.1399 10.1717 15.1973C10.1717 12.2547 12.5572 9.86916 15.4998 9.86916ZM13.1021 17.5949C13.4166 17.9103 13.7903 18.1604 14.2018 18.3308C14.6133 18.5012 15.0544 18.5886 15.4998 18.5879C16.405 18.5879 17.2557 18.2337 17.8975 17.5949C18.2128 17.2805 18.4629 16.9067 18.6333 16.4953C18.8037 16.0838 18.8911 15.6427 18.8904 15.1973C18.8904 14.2921 18.5362 13.4414 17.8975 12.7996C17.2557 12.1578 16.405 11.8067 15.4998 11.8067C14.5946 11.8067 13.7439 12.1578 13.1021 12.7996C12.7868 13.1141 12.5367 13.4878 12.3663 13.8993C12.1959 14.3108 12.1085 14.7519 12.1092 15.1973C12.1092 16.1025 12.4634 16.9532 13.1021 17.5949Z" fill="white"/>
</svg>
