<svg width="11" height="38" viewBox="0 0 11 38" fill="none" xmlns="http://www.w3.org/2000/svg">
<path d="M9.00493 1.00011H2.45544C2.06943 1.00011 1.69924 1.46544 1.42629 2.29372C1.15334 3.12201 1 4.2454 1 5.41677L1 31.9168C1 33.0881 1.15334 34.2115 1.42629 35.0398C1.69924 35.8681 2.06943 36.3334 2.45544 36.3334L8.81717 36.3335C9.20318 36.3335 8.54429 36.495 8.81724 35.6667C9.09019 34.8384 9.00499 34.3381 9.00499 33.1667L9.00493 18.6667M9.00493 1.00011C9.00493 1.00011 8.81736 1.00011 9.00493 2.29372C9.00493 5.66669 9.00493 4.2454 9.00493 5.41677L9.00493 18.6667M9.00493 1.00011L9.00493 18.6667M9.00493 36.3334L9.00493 18.6667" stroke="white" stroke-width="2" stroke-linecap="round" stroke-linejoin="round"/>
<path d="M5.90612 14.2502L4.45068 18.6669L5.90612 23.0836" stroke="white" stroke-width="2" stroke-linecap="round" stroke-linejoin="round"/>
</svg>
