<svg width="39" height="46" viewBox="0 0 39 46" fill="none" xmlns="http://www.w3.org/2000/svg">
<g filter="url(#filter0_d_227_174)">
<ellipse cx="19.0285" cy="18.6523" rx="13.2234" ry="12.5622" fill="url(#paint0_radial_227_174)"/>
<path d="M24.6371 26.4743L25.6511 27.0809L25.3805 25.9307L24.0644 20.3352L28.4141 16.5782L29.311 15.8035L28.1302 15.7016L22.3811 15.2058L20.15 9.94582L19.689 8.85898L19.2292 9.94632L16.9979 15.2226L11.2491 15.7185L10.0649 15.8206L10.9661 16.5957L15.3155 20.3365L14.0154 25.932L13.7485 27.0809L14.7598 26.4739L19.6901 23.5146L24.6371 26.4743ZM4.98279 17.6303V7.85791L19.6897 1.34734L34.3966 7.8579V17.6303C34.3966 26.7172 28.1066 35.1993 19.6897 37.311C11.2728 35.1993 4.98279 26.7172 4.98279 17.6303Z" fill="#888888" stroke="#474747"/>
</g>
<defs>
<filter id="filter0_d_227_174" x="0.482788" y="0.800537" width="38.4138" height="45.0254" filterUnits="userSpaceOnUse" color-interpolation-filters="sRGB">
<feFlood flood-opacity="0" result="BackgroundImageFix"/>
<feColorMatrix in="SourceAlpha" type="matrix" values="0 0 0 0 0 0 0 0 0 0 0 0 0 0 0 0 0 0 127 0" result="hardAlpha"/>
<feOffset dy="4"/>
<feGaussianBlur stdDeviation="2"/>
<feComposite in2="hardAlpha" operator="out"/>
<feColorMatrix type="matrix" values="0 0 0 0 0 0 0 0 0 0 0 0 0 0 0 0 0 0 0.25 0"/>
<feBlend mode="normal" in2="BackgroundImageFix" result="effect1_dropShadow_227_174"/>
<feBlend mode="normal" in="SourceGraphic" in2="effect1_dropShadow_227_174" result="shape"/>
</filter>
<radialGradient id="paint0_radial_227_174" cx="0" cy="0" r="1" gradientUnits="userSpaceOnUse" gradientTransform="translate(19.0285 18.6523) rotate(90) scale(12.5622 13.2234)">
<stop stop-color="white"/>
<stop offset="0.25" stop-color="#FFFB9B"/>
<stop offset="0.640625" stop-color="#FFF625"/>
<stop offset="1" stop-color="#FFF500"/>
</radialGradient>
</defs>
</svg>
