<svg width="19" height="21" viewBox="0 0 19 21" fill="none" xmlns="http://www.w3.org/2000/svg">
<path d="M6.67 3.00245C6.8766 2.41692 7.25974 1.90988 7.7666 1.55124C8.27346 1.1926 8.87909 1 9.5 1C10.1209 1 10.7265 1.1926 11.2334 1.55124C11.7403 1.90988 12.1234 2.41692 12.33 3.00245M18 5.00245H1M16.333 7.50245L15.873 14.4025C15.696 17.0565 15.608 18.3835 14.743 19.1925C13.878 20.0025 12.547 20.0025 9.887 20.0025H9.113C6.453 20.0025 5.122 20.0025 4.257 19.1925C3.392 18.3835 3.303 17.0565 3.127 14.4025L2.667 7.50245M7 10.0025L7.5 15.0025M12 10.0025L11.5 15.0025" stroke="#F24E1E" stroke-width="1.5" stroke-linecap="round"/>
</svg>
